<?xml version="1.0" encoding="UTF-8" standalone="no"?>
<!-- Created with Inkscape (http://www.inkscape.org/) -->

<svg
   xmlns:dc="http://purl.org/dc/elements/1.1/"
   xmlns:cc="http://creativecommons.org/ns#"
   xmlns:rdf="http://www.w3.org/1999/02/22-rdf-syntax-ns#"
   xmlns:svg="http://www.w3.org/2000/svg"
   xmlns="http://www.w3.org/2000/svg"
   xmlns:sodipodi="http://sodipodi.sourceforge.net/DTD/sodipodi-0.dtd"
   xmlns:inkscape="http://www.inkscape.org/namespaces/inkscape"
   width="744.09448819"
   height="1052.3622047"
   id="svg2"
   version="1.1"
   inkscape:version="0.48.2 r9819"
   sodipodi:docname="neuropaint.svg"
   inkscape:export-filename="/Users/chris/Development/neuropaint.png"
   inkscape:export-xdpi="150"
   inkscape:export-ydpi="150">
  <defs
     id="defs4" />
  <sodipodi:namedview
     id="base"
     pagecolor="#000000"
     bordercolor="#666666"
     borderopacity="1.0"
     inkscape:pageopacity="0"
     inkscape:pageshadow="2"
     inkscape:zoom="0.7"
     inkscape:cx="349.30014"
     inkscape:cy="610.61637"
     inkscape:document-units="px"
     inkscape:current-layer="layer1"
     showgrid="false"
     inkscape:window-width="1280"
     inkscape:window-height="752"
     inkscape:window-x="0"
     inkscape:window-y="0"
     inkscape:window-maximized="1" />
  <metadata
     id="metadata7">
    <rdf:RDF>
      <cc:Work
         rdf:about="">
        <dc:format>image/svg+xml</dc:format>
        <dc:type
           rdf:resource="http://purl.org/dc/dcmitype/StillImage" />
        <dc:title></dc:title>
      </cc:Work>
    </rdf:RDF>
  </metadata>
  <g
     inkscape:label="Layer 1"
     inkscape:groupmode="layer"
     id="layer1">
    <text
       xml:space="preserve"
       style="font-size:79.99118042000000628px;font-style:normal;font-weight:normal;line-height:125%;letter-spacing:0px;word-spacing:0px;fill:#ffffff;fill-opacity:1;stroke:none;font-family:Sans"
       x="75.28817"
       y="480.98282"
       id="text2985"
       sodipodi:linespacing="125%"><tspan
         sodipodi:role="line"
         id="tspan2987"
         x="75.28817"
         y="480.98282"
         style="font-style:normal;font-variant:normal;font-weight:normal;font-stretch:normal;letter-spacing:10.63999367000000085px;font-family:Gotham Light;-inkscape-font-specification:Gotham Light;fill:#ffffff">NEURO</tspan></text>
    <g
       style="font-size:40px;font-style:normal;font-weight:normal;line-height:125%;letter-spacing:0px;word-spacing:0px;fill:#ffffff;fill-opacity:1;stroke:none;font-family:Sans"
       id="text2989"
       transform="matrix(0.53652049,0,0,0.53652049,307.27988,187.31825)">
      <path
         d="m 339.82857,481.55648 c -12.72011,16.08004 -26.40009,28.08003 -41.04,36 -14.40006,7.68001 -29.52005,13.32 -45.36,16.92 -5.52003,1.2 -10.32002,2.16 -14.4,2.88 -4.08001,0.72 -8.16001,1.44 -12.24,2.16 -112.80469,232.92094 -530.2355,81.31187 -636.91481,32.75569 -27.0225,-12.86231 52.00355,-7.20566 43.49739,-5.3019 162.36413,73.37469 490.78308,177.36931 588.01742,-27.45379 0.65079,-1.3713 -2.16,-1.8 -2.16,-3.96 0,-1.44 0.72,-2.28 2.16,-2.52 1.68,-0.24 3,-0.48 3.96,-0.72 l 16.56,-27 c 7.67997,-12.47996 15.35996,-25.43994 23.04,-38.88 7.67995,-13.43992 15.59994,-25.43991 23.76,-36 0.95993,-0.95989 2.27993,-1.67989 3.96,-2.16 0.47993,-0.23989 1.43993,-0.47989 2.88,-0.72 1.43992,-0.23989 2.87992,-0.47989 4.32,-0.72 1.43992,-0.23989 2.75992,-0.35989 3.96,-0.36 1.19992,-0.23989 1.91992,-0.35989 2.16,-0.36 0.71991,1.1e-4 1.07991,0.24011 1.08,0.72 -9e-5,0.72011 -0.48009,1.56011 -1.44,2.52 -5.04008,4.5601 -9.48008,9.0001 -13.32,13.32 -3.84007,4.08009 -7.44006,8.16008 -10.8,12.24 -3.36006,3.84008 -6.60005,7.80007 -9.72,11.88 -2.88005,4.08006 -5.88004,8.52006 -9,13.32 2.39996,-2.63994 5.03995,-5.39994 7.92,-8.28 2.87995,-2.87993 5.75994,-5.51993 8.64,-7.92 2.87994,-2.39993 5.75994,-4.31992 8.64,-5.76 2.87993,-1.67992 5.51993,-2.51992 7.92,-2.52 2.39992,8e-5 4.31992,0.72008 5.76,2.16 1.67992,1.44008 2.51992,3.84007 2.52,7.2 -8e-5,2.40007 -1.08008,6.12006 -3.24,11.16 -1.92008,5.04005 -5.40007,10.68005 -10.44,16.92 -4.80006,6.24004 -11.28006,12.72003 -19.44,19.44 -8.16004,6.72002 -18.36003,12.96001 -30.6,18.72 6.47997,-0.72 13.67997,-1.79999 21.6,-3.24 8.15995,-1.67999 16.55994,-4.31999 25.2,-7.92 8.63993,-3.83998 17.27992,-8.87998 25.92,-15.12 8.6399,-6.47996 16.79989,-14.75996 24.48,-24.84 0.23988,-0.47994 0.59988,-0.59994 1.08,-0.36 0.71988,6e-5 1.07988,0.60005 1.08,1.8 m -50.4,-9.36 c -7e-5,-0.95994 -0.24007,-2.15993 -0.72,-3.6 -0.24007,-1.43993 -1.44007,-2.15993 -3.6,-2.16 -1.20006,7e-5 -3.00006,0.72007 -5.4,2.16 -2.16006,1.20007 -4.68005,3.00006 -7.56,5.4 -2.88005,2.16006 -5.88005,4.92006 -9,8.28 -3.12004,3.36005 -6.12004,7.08005 -9,11.16 -4.08003,5.76004 -8.04003,12.00003 -11.88,18.72 -3.84002,6.48002 -7.68001,13.20001 -11.52,20.16 7.91998,-2.16 15.35997,-5.75999 22.32,-10.8 7.19996,-5.03998 13.43995,-10.55998 18.72,-16.56 5.51994,-5.99996 9.83994,-11.99996 12.96,-18 3.11993,-5.99995 4.67993,-10.91994 4.68,-14.76"
         style="font-size:144px;font-style:italic;font-variant:normal;font-weight:bold;font-stretch:normal;font-family:Zapfino;-inkscape-font-specification:Zapfino Bold Italic;fill:#ffffff"
         id="path2994"
         inkscape:connector-curvature="0"
         sodipodi:nodetypes="cccsccccscccsccccccccccccssccccccsccccccccccccscccccsc" />
      <path
         d="m 438.22107,488.75648 c -5.52013,6.72004 -11.64013,13.56003 -18.36,20.52 -6.48011,6.72002 -13.08011,12.84001 -19.8,18.36 -6.72009,5.52 -13.44009,9.96 -20.16,13.32 -6.48007,3.35999 -12.48007,5.03999 -18,5.04 -4.80006,-10e-6 -8.16005,-1.20001 -10.08,-3.6 -1.92005,-2.4 -2.88005,-5.4 -2.88,-9 -5e-5,-3.35999 0.95995,-7.79999 2.88,-13.32 2.15995,-5.75998 5.27994,-11.87997 9.36,-18.36 -3.12006,4.08003 -6.72005,8.40003 -10.8,12.96 -4.08005,4.56002 -8.28004,8.76001 -12.6,12.6 -4.32003,3.6 -8.64003,6.72 -12.96,9.36 -4.32002,2.4 -8.16002,3.59999 -11.52,3.6 -5.04001,-10e-6 -7.56001,-2.52 -7.56,-7.56 -10e-6,-5.51999 2.15999,-12.47999 6.48,-20.88 4.31998,-8.39997 10.07998,-16.43996 17.28,-24.12 7.43996,-7.91994 15.83996,-14.63994 25.2,-20.16 9.35994,-5.75993 19.07993,-8.63992 29.16,-8.64 1.19992,-2.39992 2.27991,-4.07992 3.24,-5.04 0.95991,-0.95992 1.91991,-1.67992 2.88,-2.16 l 10.08,-2.88 0.72,0.36 c -1.2001,1.20008 -2.4001,2.76008 -3.6,4.68 -0.9601,1.68008 -2.04009,3.48008 -3.24,5.4 1.19991,8e-5 2.9999,0.12008 5.4,0.36 2.3999,0.24008 4.1999,0.48008 5.4,0.72 1.19989,0.48007 1.79989,1.08007 1.8,1.8 -1.1e-4,0.72007 -0.36011,1.08007 -1.08,1.08 -1.4401,-0.47993 -3.6001,-0.83993 -6.48,-1.08 -2.8801,-0.23993 -5.04009,-0.35993 -6.48,-0.36 -11.04008,19.44005 -19.20007,34.92004 -24.48,46.44 -5.04006,11.28002 -7.56006,19.68001 -7.56,25.2 -6e-5,2.16 0.47994,3.96 1.44,5.4 1.19994,1.43999 3.47993,2.15999 6.84,2.16 3.83993,-1e-5 8.39992,-1.32 13.68,-3.96 5.27991,-2.88 10.91991,-6.72 16.92,-11.52 5.9999,-5.03999 12.11989,-10.79998 18.36,-17.28 6.47988,-6.47997 12.59987,-13.31996 18.36,-20.52 0.47986,-0.71995 0.95986,-0.83995 1.44,-0.36 0.47986,0.24005 0.71986,0.72005 0.72,1.44 m -56.16,-27.36 c -8.16007,7e-5 -15.96007,2.88007 -23.4,8.64 -7.44005,5.76006 -14.04004,12.60005 -19.8,20.52 -5.76003,7.68004 -10.44003,15.36003 -14.04,23.04 -3.36002,7.68001 -5.04002,13.32001 -5.04,16.92 -2e-5,1.92 0.71998,2.88 2.16,2.88 1.43998,0 3.59997,-0.96 6.48,-2.88 3.11997,-1.91999 6.59997,-4.43999 10.44,-7.56 3.83996,-3.35998 7.67995,-7.19998 11.52,-11.52 4.07995,-4.31997 7.79994,-8.99997 11.16,-14.04 3.83993,-5.75996 7.55993,-11.87995 11.16,-18.36 3.59992,-6.47994 6.83992,-12.23993 9.72,-17.28 l -0.36,-0.36"
         style="font-size:144px;font-style:italic;font-variant:normal;font-weight:bold;font-stretch:normal;font-family:Zapfino;-inkscape-font-specification:Zapfino Bold Italic;fill:#ffffff"
         id="path2996"
         inkscape:connector-curvature="0" />
      <path
         d="m 484.35732,410.63648 c -8e-5,2.88012 -1.32008,5.76012 -3.96,8.64 -2.40007,2.88011 -5.16007,4.32011 -8.28,4.32 -2.88007,1.1e-4 -4.32006,-1.43989 -4.32,-4.32 -6e-5,-3.11988 1.07993,-6.11988 3.24,-9 2.39993,-2.87987 5.27993,-4.31987 8.64,-4.32 3.11992,1.3e-4 4.67992,1.56013 4.68,4.68 m 16.2,80.28 c -5.76009,7.44004 -12.36009,14.52003 -19.8,21.24 -7.44007,6.72002 -14.28006,12.12001 -20.52,16.2 -4.80005,3.12 -9.72005,5.52 -14.76,7.2 -5.04004,1.68 -9.60003,2.52 -13.68,2.52 -1.44003,0 -3.12003,-0.12 -5.04,-0.36 -1.92002,-0.24 -3.72002,-0.84 -5.4,-1.8 -1.44002,-0.96 -2.76002,-2.16 -3.96,-3.6 -0.96001,-1.68 -1.44001,-3.83999 -1.44,-6.48 -10e-6,-3.11999 1.19999,-7.31998 3.6,-12.6 2.39998,-5.51997 5.15998,-11.15997 8.28,-16.92 3.35997,-5.75996 6.59997,-11.27995 9.72,-16.56 3.35996,-5.27994 5.99996,-9.23994 7.92,-11.88 1.19996,-1.91993 3.23995,-3.47993 6.12,-4.68 3.11995,-1.43993 5.15995,-2.15993 6.12,-2.16 1.19994,7e-5 1.79994,0.36007 1.8,1.08 -6e-5,0.48007 -0.24006,1.20007 -0.72,2.16 -0.24006,0.96007 -0.60006,1.68007 -1.08,2.16 -3.12005,4.80006 -6.36005,10.08006 -9.72,15.84 -3.12004,5.76005 -6.00004,11.40004 -8.64,16.92 -2.64003,5.28003 -4.80003,10.20003 -6.48,14.76 -1.44003,4.56002 -2.16003,8.16001 -2.16,10.8 -3e-5,2.88001 0.71997,5.04001 2.16,6.48 1.67997,1.2 3.83997,1.8 6.48,1.8 4.79996,0 10.07995,-1.56 15.84,-4.68 5.75994,-3.35999 11.39994,-7.31999 16.92,-11.88 5.75993,-4.55998 11.03992,-9.35997 15.84,-14.4 4.79991,-5.03996 8.51991,-9.35996 11.16,-12.96 1.1999,-1.19995 1.7999,-1.43995 1.8,-0.72 0.2399,0.48005 0.1199,1.32005 -0.36,2.52"
         style="font-size:144px;font-style:italic;font-variant:normal;font-weight:bold;font-stretch:normal;font-family:Zapfino;-inkscape-font-specification:Zapfino Bold Italic;fill:#ffffff"
         id="path2998"
         inkscape:connector-curvature="0" />
      <path
         d="m 595.32732,491.63648 c -4.32012,6.00004 -9.36012,12.12003 -15.12,18.36 -5.52011,6.00002 -11.5201,11.40001 -18,16.2 -6.24009,4.8 -12.72008,8.76 -19.44,11.88 -6.48007,3.11999 -12.84006,4.67999 -19.08,4.68 -2.88005,-10e-6 -5.52005,-0.48001 -7.92,-1.44 -2.40005,-0.72001 -3.60004,-2.76 -3.6,-6.12 -4e-5,-3.36 1.19995,-7.55999 3.6,-12.6 2.39995,-5.27998 5.15995,-10.79998 8.28,-16.56 3.35994,-5.75997 6.71994,-11.63996 10.08,-17.64 3.59993,-5.99995 6.47993,-11.51994 8.64,-16.56 0.47993,-1.19994 0.47993,-2.15993 0,-2.88 -0.24007,-0.95993 -0.96007,-1.07993 -2.16,-0.36 -2.64007,1.68006 -5.76007,3.96006 -9.36,6.84 -3.60006,2.88006 -7.32006,6.00005 -11.16,9.36 -3.60005,3.12005 -7.20004,6.36004 -10.8,9.72 -3.36004,3.36004 -6.12003,6.36003 -8.28,9 -3.84003,6.00003 -7.20003,11.52002 -10.08,16.56 -2.64002,5.04001 -6.00002,10.68 -10.08,16.92 -0.96001,1.44 -1.68001,2.16 -2.16,2.16 -1.20001,0 -2.28001,-1.32 -3.24,-3.96 -0.72001,-2.64 -1.08001,-4.32 -1.08,-5.04 -1e-5,-2.15999 1.43999,-5.03999 4.32,-8.64 3.11999,-3.83998 6.47998,-8.03998 10.08,-12.6 3.83998,-7.67997 7.79997,-15.71996 11.88,-24.12 4.07996,-8.63994 7.55996,-16.31993 10.44,-23.04 0.71996,-1.19993 1.79996,-1.79992 3.24,-1.8 1.43995,8e-5 2.75995,0.60007 3.96,1.8 1.19995,1.20007 1.79995,2.52007 1.8,3.96 -5e-5,0.96007 -1.80005,4.32007 -5.4,10.08 -3.36004,5.52005 -6.72004,12.00005 -10.08,19.44 4.55996,-4.07996 9.47995,-8.39995 14.76,-12.96 5.51994,-4.55994 10.67994,-8.75994 15.48,-12.6 5.03993,-3.83993 9.35992,-6.95993 12.96,-9.36 3.83992,-2.63992 6.47991,-3.95992 7.92,-3.96 0.95991,8e-5 1.79991,0.60008 2.52,1.8 0.95991,0.96008 1.43991,1.92008 1.44,2.88 -9e-5,0.96007 -0.60009,2.40007 -1.8,4.32 -2.64009,3.84007 -5.88008,8.76006 -9.72,14.76 -3.84008,6.00005 -7.56007,12.24004 -11.16,18.72 -3.36007,6.24003 -6.24006,12.24002 -8.64,18 -2.40006,5.76001 -3.60006,10.32001 -3.6,13.68 -6e-5,2.88 0.59994,4.92 1.8,6.12 1.19994,0.96 3.11994,1.44 5.76,1.44 4.07993,0 8.87993,-1.56 14.4,-4.68 5.51992,-3.12 11.15991,-6.95999 16.92,-11.52 5.9999,-4.79998 11.63989,-10.07998 16.92,-15.84 5.27988,-5.75997 9.59988,-11.27996 12.96,-16.56 0.47987,-0.71995 1.19987,-0.83995 2.16,-0.36 0.95987,0.24005 0.83987,1.08004 -0.36,2.52"
         style="font-size:144px;font-style:italic;font-variant:normal;font-weight:bold;font-stretch:normal;font-family:Zapfino;-inkscape-font-specification:Zapfino Bold Italic;fill:#ffffff"
         id="path3000"
         inkscape:connector-curvature="0" />
      <path
         d="m 660.10482,406.67648 c -1.9201,0.48013 -4.08009,1.44013 -6.48,2.88 -2.40009,1.20012 -4.20009,2.76012 -5.4,4.68 -5.52008,7.68011 -10.92008,15.72011 -16.2,24.12 -5.04006,8.40009 -9.96006,16.80008 -14.76,25.2 l 44.64,0 c 0.7199,0.48007 1.0799,0.96007 1.08,1.44 -10e-5,0.48007 -0.2401,0.84007 -0.72,1.08 -1.9201,7e-5 -4.8001,0.12007 -8.64,0.36 -3.84009,7e-5 -8.04008,0.12007 -12.6,0.36 -4.56007,0.24007 -9.24007,0.48007 -14.04,0.72 -4.80006,0.24007 -9.00006,0.48007 -12.6,0.72 -6.72005,12.00005 -11.88004,22.20004 -15.48,30.6 -3.60003,8.40003 -5.40003,15.72002 -5.4,21.96 -3e-5,8.64001 3.95996,12.96 11.88,12.96 3.83995,0 8.15995,-0.96 12.96,-2.88 5.03994,-2.15999 10.31993,-4.91999 15.84,-8.28 0.71993,-0.71999 1.43993,-0.59999 2.16,0.36 0.71993,0.72001 0.47993,1.32001 -0.72,1.8 -8.16007,5.28001 -15.72006,9.12 -22.68,11.52 -6.96004,2.4 -14.04004,3.6 -21.24,3.6 -3.84003,0 -7.20002,-1.08 -10.08,-3.24 -2.88002,-2.4 -4.32002,-6.36 -4.32,-11.88 -2e-5,-4.79998 2.15998,-11.87998 6.48,-21.24 4.31997,-9.35996 10.67997,-20.87995 19.08,-34.56 -2.88004,0.24007 -6.48003,0.60007 -10.8,1.08 -4.08003,0.24006 -6.48002,0.36006 -7.2,0.36 -1.20002,6e-5 -1.80002,-0.47993 -1.8,-1.44 0.95998,-1.67993 2.51998,-3.35993 4.68,-5.04 l 18.36,-0.36 c 2.15995,-3.59992 4.55995,-7.55992 7.2,-11.88 2.63995,-4.55991 5.27994,-8.99991 7.92,-13.32 2.63994,-4.5599 5.27994,-8.87989 7.92,-12.96 2.87993,-4.31989 5.39993,-8.27988 7.56,-11.88 2.63992,-1.19988 6.23992,-2.75988 10.8,-4.68 4.79991,-1.91987 8.99991,-3.47987 12.6,-4.68 0.4799,1.3e-4 0.8399,0.36013 1.08,1.08 0.2399,0.48013 -0.1201,0.96013 -1.08,1.44"
         style="font-size:144px;font-style:italic;font-variant:normal;font-weight:bold;font-stretch:normal;font-family:Zapfino;-inkscape-font-specification:Zapfino Bold Italic;fill:#ffffff"
         id="path3002"
         inkscape:connector-curvature="0" />
    </g>
  </g>
</svg>
